<?xml version="1.0" encoding="UTF-8" standalone="no"?>
<!-- Created with Inkscape (http://www.inkscape.org/) -->

<svg
   width="130.79713mm"
   height="30.312897mm"
   viewBox="0 0 130.79713 30.312897"
   version="1.1"
   id="svg1038"
   sodipodi:docname="logo.svg"
   inkscape:version="1.2.1 (9c6d41e4, 2022-07-14)"
   xmlns:inkscape="http://www.inkscape.org/namespaces/inkscape"
   xmlns:sodipodi="http://sodipodi.sourceforge.net/DTD/sodipodi-0.dtd"
   xmlns="http://www.w3.org/2000/svg"
   xmlns:svg="http://www.w3.org/2000/svg">
  <sodipodi:namedview
     id="namedview1040"
     pagecolor="#ffffff"
     bordercolor="#000000"
     borderopacity="0.25"
     inkscape:showpageshadow="2"
     inkscape:pageopacity="0.0"
     inkscape:pagecheckerboard="0"
     inkscape:deskcolor="#d1d1d1"
     inkscape:document-units="mm"
     showgrid="false"
     inkscape:zoom="1.1040776"
     inkscape:cx="298.89205"
     inkscape:cy="-11.774535"
     inkscape:window-width="1405"
     inkscape:window-height="518"
     inkscape:window-x="35"
     inkscape:window-y="25"
     inkscape:window-maximized="0"
     inkscape:current-layer="layer1" />
  <defs
     id="defs1035" />
  <g
     inkscape:label="Layer 1"
     inkscape:groupmode="layer"
     id="layer1"
     transform="translate(-12.998922,-68.811521)">
    <path
       d="m 40.763895,75.803647 -5.432277,2.963005 v 2.594818 4.79308 1.752815 c 0,0.407421 0.109249,0.982035 -0.269803,1.26391 -0.157536,0.117095 -0.38871,0.188319 -0.567975,0.27101 -0.575218,0.265578 -1.151039,0.531156 -1.726257,0.796734 -1.42205,0.656098 -2.843496,1.312197 -4.264942,1.968899 -0.339215,0.156329 -0.678431,0.312658 -1.017646,0.46959 v 6.446906 l 13.2789,-7.192939 z"
       id="path860"
       style="fill:#f7bd62;fill-rule:evenodd;stroke:none;stroke-width:0.603586;fill-opacity:1"
       inkscape:export-filename="../../../../urda/logo/logo.svg"
       inkscape:export-xdpi="43.57222"
       inkscape:export-ydpi="43.57222" />
    <path
       d="m 26.277822,92.677206 c -0.924695,-0.427339 -1.849993,-0.854075 -2.77529,-1.28081 -1.370142,-0.632559 -2.740886,-1.265117 -4.111027,-1.897676 -0.391728,-0.180472 -0.915037,-0.324729 -0.961514,-0.827517 -0.0163,-0.177454 0.0012,-0.36698 0.0012,-0.545038 v -1.746176 -4.843781 -2.769254 l -5.432278,-2.963609 v 16.127828 l 13.278901,7.19294 z"
       id="path862"
       style="fill:#34100a;fill-rule:evenodd;stroke:none;stroke-width:0.603586;fill-opacity:1" />
    <path
       d="m 19.05748,77.733131 c 0.400781,-0.185301 0.802166,-0.369998 1.202948,-0.555299 0.874596,-0.403799 1.749193,-0.807599 2.62379,-1.211398 0.867957,-0.400178 1.735914,-0.800356 2.603268,-1.201137 0.388709,-0.179265 0.794319,-0.427339 1.204758,-0.54866 0.346459,-0.102006 0.739997,0.159347 1.052655,0.303604 l 1.118446,0.51667 2.961798,1.366519 c 0.808806,0.37362 1.617612,0.74724 2.426417,1.120257 0.1515,0.07002 0.303001,0.139428 0.453897,0.209444 l 5.315786,-2.899629 -13.140076,-6.021981 -13.139473,6.021981 z"
       id="path864"
       style="fill:#6a2918;fill-rule:evenodd;stroke:none;stroke-width:0.603586;fill-opacity:1" />
    <polygon
       points="22.9997,37.8982 33.7627,32.9312 22.9997,27.1362 12.2377,32.9312 "
       id="polygon866"
       style="fill:#6a2918;fill-rule:evenodd;stroke:none;stroke-width:1;fill-opacity:1"
       transform="matrix(0.6035864,0,0,0.6035864,12.998921,68.750981)" />
    <polygon
       points="24.0005,25.4031 25.8335,26.3901 35.0005,31.3261 35.0005,16.6401 24.0005,11.5631 "
       id="polygon868"
       style="fill:#34100a;fill-rule:evenodd;stroke:none;stroke-width:1;fill-opacity:1"
       transform="matrix(0.6035864,0,0,0.6035864,12.998921,68.750981)" />
    <polygon
       points="11,16.6397 11,31.3257 20.167,26.3897 22,25.4027 22,11.5627 "
       id="polygon870"
       style="fill:#f7bd62;fill-rule:evenodd;stroke:none;stroke-width:1;fill-opacity:1"
       transform="matrix(0.6035864,0,0,0.6035864,12.998921,68.750981)" />
    <text
       xml:space="preserve"
       style="font-style:normal;font-variant:normal;font-weight:normal;font-stretch:normal;font-size:19.0803px;font-family:'Arial Black';-inkscape-font-specification:'Arial Black, ';fill:#808080;stroke:none;stroke-width:0.375;stroke-dasharray:none;stroke-opacity:1"
       x="43.625019"
       y="87.750717"
       id="text2070"><tspan
         sodipodi:role="line"
         id="tspan2068"
         style="font-style:normal;font-variant:normal;font-weight:normal;font-stretch:normal;font-size:19.0802px;font-family:'Arial Black';-inkscape-font-specification:'Arial Black, ';fill:#808080;stroke:none;stroke-width:0.375;stroke-dasharray:none"
         x="43.625019"
         y="87.750717"><tspan
   style="fill:#34100a;fill-opacity:1"
   id="tspan4089">UR</tspan><tspan
   style="fill:#6a2918;fill-opacity:1"
   id="tspan4297">D</tspan><tspan
   id="tspan5871"
   style="fill:#f7bd62;fill-opacity:1">A</tspan><tspan
   style="fill:#666666"
   id="tspan5873">s</tspan>o<tspan
   style="fill:#999999"
   id="tspan4617">f</tspan><tspan
   style="fill:#b3b3b3"
   id="tspan4619">t</tspan></tspan></text>
    <text
       xml:space="preserve"
       style="font-style:normal;font-variant:normal;font-weight:normal;font-stretch:normal;font-size:4.59183px;font-family:'Arial Black';-inkscape-font-specification:'Arial Black, ';fill:#808080;stroke:#7f7f7f;stroke-width:0.361199;stroke-opacity:1"
       x="44.46904"
       y="94.371338"
       id="text2074"
       inkscape:export-filename="../../../../urda/logo/logo-dark.svg"
       inkscape:export-xdpi="43.57222"
       inkscape:export-ydpi="43.57222"><tspan
         sodipodi:role="line"
         id="tspan2072"
         style="font-style:normal;font-variant:normal;font-weight:normal;font-stretch:normal;font-size:4.59183px;font-family:Arial;-inkscape-font-specification:Arial;fill:#808080;stroke:#7f7f7f;stroke-width:0.3612;stroke-opacity:1"
         x="44.46904"
         y="94.371338">PROFESSIONAL SOFTWARE DEVELOPMENT </tspan></text>
  </g>
</svg>
